<svg width="48" height="48" viewBox="0 0 48 48" fill="none"
  xmlns="http://www.w3.org/2000/svg"
  stroke-linecap="round" stroke-linejoin="round">
  <style>
    .bg { fill: #eff1f5; }
    .sh { stroke: #4c4f69; fill: #4c4f69; }
    @media (prefers-color-scheme: dark) {
      .bg { fill: #1e2030; }
      .sh { stroke: #cad3f5; fill: #cad3f5; }
    }
  </style>
  <rect width="48" height="48" rx="10" class="bg" />
  <g class="sh" stroke-linecap="round" stroke-linejoin="round">
    <rect x="17" y="1" width="14" height="16" rx="1" stroke-width="2" fill-opacity="0.08" />
    <line x1="20" y1="6" x2="28" y2="6" stroke-width="1.2" opacity="0.45" />
    <line x1="20" y1="9" x2="28" y2="9" stroke-width="1.2" opacity="0.45" />
    <line x1="20" y1="12" x2="28" y2="12" stroke-width="1.2" opacity="0.45" />
    <rect x="4" y="14" width="40" height="8" rx="4" stroke-width="2" fill-opacity="0.1" />
    <line x1="42" y1="15" x2="46" y2="11" stroke-width="1.8" />
    <rect x="2" y="21" width="44" height="25" rx="3" stroke-width="2" fill-opacity="0.08" />
    <rect x="7" y="25" width="7" height="6" rx="1.5" stroke-width="1.6" fill-opacity="0.12" />
    <rect x="16" y="25" width="7" height="6" rx="1.5" stroke-width="1.6" fill-opacity="0.12" />
    <rect x="25" y="25" width="7" height="6" rx="1.5" stroke-width="1.6" fill-opacity="0.12" />
    <rect x="34" y="25" width="7" height="6" rx="1.5" stroke-width="1.6" fill-opacity="0.12" />
    <rect x="7" y="33" width="7" height="6" rx="1.5" stroke-width="1.6" fill-opacity="0.12" />
    <rect x="16" y="33" width="7" height="6" rx="1.5" stroke-width="1.6" fill-opacity="0.12" />
    <rect x="25" y="33" width="7" height="6" rx="1.5" stroke-width="1.6" fill-opacity="0.12" />
    <rect x="34" y="33" width="7" height="6" rx="1.5" stroke-width="1.6" fill-opacity="0.12" />
    <rect x="13" y="40" width="22" height="4" rx="2" stroke-width="1.6" fill-opacity="0.12" />
  </g>
</svg>